<?xml version="1.0" encoding="UTF-8" standalone="no"?>
<!DOCTYPE svg PUBLIC "-//W3C//DTD SVG 1.1//EN" "http://www.w3.org/Graphics/SVG/1.1/DTD/svg11.dtd">
<svg width="100%" height="100%" viewBox="0 0 250 111" version="1.1" xmlns="http://www.w3.org/2000/svg" xmlns:xlink="http://www.w3.org/1999/xlink" xml:space="preserve" xmlns:serif="http://www.serif.com/" style="fill-rule:evenodd;clip-rule:evenodd;stroke-linejoin:round;stroke-miterlimit:2;">
    <g>
        <g transform="matrix(1,0,0,1,84,0)">
            <path d="M21.661,64.994C15.538,64.994 14.471,61.789 14.471,57.846L0.067,57.846L0.067,60.567C0.204,70.887 8.588,79.221 18.97,79.357L28.874,79.357L28.874,64.994L21.661,64.994Z" style="fill:rgb(120,80,220);fill-rule:nonzero;"/>
            <path d="M52.046,0L37.387,0L37.387,79.242L52.046,79.242L52.046,0ZM63.944,64.556C63.944,72.971 70.903,80.694 82.5,80.694C88.942,81.119 95.126,78.107 98.736,72.786C98.725,74.95 98.903,77.11 99.27,79.242L112.653,79.242C112.216,76.411 111.991,73.552 111.98,70.688L111.98,44.221C111.98,33.384 105.602,23.747 88.415,23.747C73.895,23.747 66.078,32.969 65.22,41.477L78.209,44.221C78.64,38.966 83.266,35.048 88.554,35.459C94.723,35.459 97.692,38.641 97.692,42.376C97.692,44.244 96.695,45.765 93.61,46.203L80.181,48.255C71.158,49.569 63.944,54.941 63.944,64.579L63.944,64.556ZM85.631,69.928C83.86,70.095 82.099,69.518 80.776,68.334C79.454,67.151 78.691,65.471 78.673,63.703C78.673,59.529 81.665,57.454 85.399,56.901L97.623,55.057L97.623,57.362C97.623,66.884 91.894,69.835 85.724,69.835L85.631,69.928ZM122.07,64.141C122.719,70.273 128.332,80.787 144.638,80.787C158.833,80.787 165.652,71.818 165.652,63.057C165.652,55.172 160.271,48.716 149.578,46.526L141.878,44.889C138.909,44.336 136.914,42.584 136.914,40.071C136.914,37.004 139.999,34.722 143.873,34.722C148.318,34.33 152.269,37.531 152.779,41.938L165.003,39.194C164.33,33.408 159.158,23.655 143.757,23.655C132.159,23.655 123.485,31.655 123.485,41.269C123.485,48.832 128.123,55.103 138.677,57.408L145.844,59.045C150.019,59.921 151.689,61.904 151.689,64.302C151.689,67.161 149.37,69.674 144.522,69.674C138.143,69.674 134.943,65.731 134.618,61.466L122.07,64.141Z" style="fill:rgb(45,45,90);fill-rule:nonzero;"/>
        </g>
        <path d="M38.292,18.893L49.038,48.323L27.523,48.323L38.292,18.893ZM29.834,2L0,80L16.015,80L22.485,62.18L54.076,62.18L60.546,80L77,80L47.397,2L29.834,2Z" style="fill:rgb(45,45,90);fill-rule:nonzero;"/>
        <path d="M113,21.326L98.667,21.326L98.667,7L84.333,7L84.333,21.326L70,21.326L70,35.651L84.333,35.651L84.333,50L98.667,50L98.667,35.651L113,35.651L113,21.326Z" style="fill:rgb(45,45,90);fill-rule:nonzero;"/>
        <g transform="matrix(1,0,0,1,0,1)">
            <path d="M151.597,5.799C151.498,4.675 152.042,3.591 153.003,2.998C153.965,2.405 155.179,2.405 156.14,2.998C157.101,3.591 157.646,4.675 157.546,5.799C157.646,6.923 157.101,8.007 156.14,8.6C155.179,9.192 153.965,9.192 153.003,8.6C152.042,8.007 151.498,6.923 151.597,5.799ZM149.282,5.799C149.282,8.749 151.676,11.141 154.63,11.141C157.583,11.141 159.977,8.749 159.977,5.799C159.977,2.849 157.583,0.457 154.63,0.457C151.676,0.457 149.282,2.849 149.282,5.799ZM165.486,5.267L165.486,2.654L166.667,2.654C167.138,2.654 167.574,2.905 167.809,3.313C168.045,3.721 168.045,4.223 167.809,4.631C167.574,5.039 167.138,5.29 166.667,5.29L165.486,5.267ZM167.037,7.233C167.954,7.311 168.861,6.999 169.535,6.374C170.21,5.748 170.589,4.868 170.579,3.949C170.586,3.001 170.183,2.096 169.474,1.466C168.764,0.837 167.816,0.545 166.875,0.665L163.009,0.665L163.009,10.956L165.324,10.956L165.324,7.256L167.037,7.233ZM178.264,11.141C180.546,11.268 182.601,9.767 183.171,7.556L180.856,6.932C180.528,8.135 179.394,8.939 178.148,8.851C177.359,8.876 176.593,8.58 176.026,8.031C175.458,7.482 175.138,6.727 175.139,5.938C175.081,5.121 175.365,4.317 175.922,3.717C176.479,3.117 177.259,2.774 178.079,2.769C179.313,2.668 180.435,3.484 180.718,4.689L182.87,3.926C182.318,1.767 180.304,0.309 178.079,0.457C176.634,0.436 175.245,1.013 174.241,2.051C173.237,3.089 172.707,4.496 172.778,5.938C172.732,7.362 173.279,8.741 174.287,9.748C175.296,10.756 176.676,11.302 178.102,11.256L178.264,11.141ZM187.731,5.799C187.731,4.164 189.058,2.839 190.694,2.839C192.331,2.839 193.657,4.164 193.657,5.799C193.657,7.434 192.331,8.759 190.694,8.759C189.058,8.759 187.731,7.434 187.731,5.799ZM185.417,5.799C185.417,8.749 187.811,11.141 190.764,11.141C193.717,11.141 196.111,8.749 196.111,5.799C196.111,2.849 193.717,0.457 190.764,0.457C187.811,0.457 185.417,2.849 185.417,5.799Z" style="fill:rgb(120,80,220);fill-rule:nonzero;"/>
            <path d="M241.319,102.878C241.749,104.731 243.472,105.99 245.37,105.838C246.286,105.934 247.202,105.653 247.905,105.059C248.609,104.465 249.039,103.611 249.097,102.693C249.068,101.111 247.851,99.805 246.273,99.663L244.63,99.293C243.843,99.131 243.449,98.692 243.449,98.068C243.557,97.228 244.32,96.631 245.162,96.726C246.205,96.631 247.136,97.377 247.269,98.414L249.028,97.744C248.602,96.091 247.077,94.963 245.37,95.038C243.486,94.945 241.872,96.373 241.736,98.253C241.749,99.705 242.839,100.923 244.282,101.097L246.019,101.49C246.875,101.675 247.338,102.161 247.338,102.785C247.338,103.409 246.713,104.149 245.602,104.149C244.448,104.232 243.432,103.399 243.287,102.253L241.319,102.878ZM237.523,102.022C237.183,103.306 235.979,104.169 234.653,104.08C233.813,104.119 232.994,103.807 232.393,103.22C231.791,102.632 231.461,101.821 231.481,100.981L239.167,100.981C239.181,100.773 239.181,100.565 239.167,100.357C239.381,98.97 238.952,97.561 238.003,96.526C237.053,95.492 235.684,94.945 234.282,95.038C231.429,95.28 229.257,97.698 229.325,100.557C229.392,103.417 231.676,105.73 234.537,105.838C236.631,105.937 238.53,104.618 239.167,102.623L237.523,102.022ZM231.644,99.386C231.718,97.911 232.944,96.758 234.421,96.772C235.15,96.706 235.872,96.954 236.407,97.453C236.942,97.952 237.238,98.655 237.222,99.386L231.644,99.386ZM223.102,96.865C224.42,96.807 225.582,97.722 225.833,99.016L227.616,98.253C227.053,96.204 225.104,94.851 222.986,95.038C221.574,95.023 220.218,95.594 219.244,96.616C218.27,97.638 217.764,99.018 217.847,100.426C217.778,101.833 218.287,103.208 219.258,104.23C220.229,105.252 221.576,105.833 222.986,105.838C225.067,105.943 226.962,104.646 227.616,102.669L225.856,101.906C225.535,103.196 224.337,104.072 223.009,103.988C221.197,103.781 219.828,102.249 219.828,100.426C219.828,98.604 221.197,97.072 223.009,96.865L223.102,96.865ZM208.38,99.64C208.38,98.091 209.19,96.842 210.694,96.842C212.199,96.842 213.009,97.998 213.009,99.409L213.009,105.514L215.278,105.514L215.278,99.062C215.414,98.028 215.089,96.986 214.39,96.212C213.691,95.438 212.687,95.009 211.644,95.038C210.351,95.001 209.142,95.676 208.495,96.796L208.495,95.339L206.481,95.339L206.481,105.514L208.472,105.514L208.38,99.64ZM201.644,101.953C201.313,103.233 200.117,104.097 198.796,104.011C197.972,104.023 197.178,103.7 196.597,103.116C196.016,102.531 195.699,101.735 195.718,100.912L203.472,100.912C203.489,100.704 203.489,100.495 203.472,100.287C203.643,98.909 203.199,97.525 202.259,96.501C201.32,95.478 199.977,94.918 198.588,94.969C195.735,95.21 193.563,97.628 193.63,100.488C193.698,103.348 195.981,105.661 198.843,105.768C200.936,105.867 202.835,104.549 203.472,102.554L201.644,101.953ZM195.787,99.316C195.85,97.836 197.082,96.677 198.565,96.703C199.308,96.636 200.044,96.892 200.585,97.406C201.126,97.919 201.419,98.641 201.389,99.386L195.787,99.316ZM189.329,92.055L187.5,92.055L187.5,93.813C187.545,94.24 187.393,94.665 187.087,94.966C186.78,95.268 186.353,95.414 185.926,95.362L185.394,95.362L185.394,97.166L187.5,97.166L187.5,102.762C187.423,103.537 187.692,104.307 188.237,104.865C188.782,105.423 189.546,105.711 190.324,105.653C190.786,105.654 191.245,105.592 191.69,105.468L191.69,103.756L190.903,103.756C189.861,103.756 189.491,103.294 189.491,102.369L189.491,97.143L191.806,97.143L191.806,95.339L189.491,95.339L189.329,92.055ZM182.384,90.876L179.861,90.876L178.009,93.951L179.699,93.951L182.384,90.876ZM182.037,101.953C181.689,103.231 180.491,104.09 179.167,104.011C178.342,104.023 177.548,103.7 176.967,103.116C176.386,102.531 176.069,101.735 176.088,100.912L183.75,100.912C183.767,100.704 183.767,100.495 183.75,100.287C183.921,98.909 183.477,97.525 182.537,96.501C181.597,95.478 180.255,94.918 178.866,94.969C176.013,95.21 173.841,97.628 173.908,100.488C173.975,103.348 176.259,105.661 179.12,105.768C181.214,105.867 183.113,104.549 183.75,102.554L182.037,101.953ZM176.157,99.316C176.232,97.842 177.458,96.689 178.935,96.703C179.664,96.637 180.386,96.885 180.921,97.383C181.456,97.882 181.752,98.585 181.736,99.316L176.157,99.316ZM169.861,100.357C169.861,102.438 168.704,103.941 166.852,103.941C165.122,103.629 163.864,102.125 163.864,100.368C163.864,98.612 165.122,97.108 166.852,96.796C167.74,96.827 168.573,97.232 169.147,97.91C169.72,98.588 169.979,99.477 169.861,100.357ZM163.843,109.468L163.843,104.149C164.59,105.229 165.84,105.849 167.153,105.791C168.5,105.749 169.767,105.144 170.647,104.124C171.527,103.105 171.939,101.763 171.782,100.426C171.986,99.085 171.59,97.721 170.699,96.697C169.807,95.673 168.511,95.092 167.153,95.108C165.766,95.036 164.455,95.74 163.75,96.934L163.75,95.339L161.806,95.339L161.806,109.537L163.843,109.468ZM145.324,105.444L145.324,99.386C145.244,98.726 145.452,98.064 145.895,97.568C146.339,97.072 146.974,96.791 147.639,96.796C148.252,96.756 148.851,96.993 149.272,97.44C149.693,97.887 149.892,98.499 149.815,99.108L149.815,105.491L151.806,105.491L151.806,99.363C151.733,98.706 151.944,98.051 152.387,97.56C152.829,97.07 153.46,96.792 154.12,96.796C154.734,96.756 155.333,96.993 155.754,97.44C156.174,97.887 156.374,98.499 156.296,99.108L156.296,105.491L158.264,105.491L158.264,98.923C158.369,97.929 158.046,96.936 157.374,96.195C156.702,95.453 155.746,95.033 154.745,95.038C153.33,94.973 152.005,95.729 151.343,96.981C150.825,95.763 149.61,94.991 148.287,95.038C147.031,95.004 145.85,95.638 145.185,96.703L145.185,95.339L143.287,95.339L143.287,105.514L145.324,105.444ZM135.185,94.969C132.975,94.884 130.936,96.149 130.032,98.166C129.129,100.183 129.544,102.546 131.08,104.135C132.617,105.724 134.966,106.221 137.015,105.39C139.064,104.558 140.401,102.566 140.394,100.357C140.471,98.938 139.954,97.551 138.965,96.528C137.977,95.506 136.607,94.941 135.185,94.969ZM135.185,103.988C133.676,104.19 132.199,103.436 131.478,102.096C130.757,100.756 130.942,99.11 131.943,97.964C132.945,96.818 134.552,96.411 135.979,96.943C137.405,97.476 138.353,98.835 138.356,100.357C138.461,101.268 138.176,102.181 137.573,102.871C136.97,103.562 136.103,103.967 135.185,103.988ZM123.611,96.796C124.929,96.737 126.091,97.652 126.343,98.946L128.148,98.183C127.57,96.146 125.632,94.8 123.519,94.969C122.11,94.96 120.761,95.534 119.792,96.555C118.822,97.576 118.32,98.952 118.403,100.357C118.333,101.764 118.843,103.138 119.814,104.161C120.784,105.183 122.131,105.764 123.542,105.768C125.623,105.873 127.518,104.577 128.171,102.6L126.412,101.837C126.091,103.126 124.892,104.002 123.565,103.918C121.816,103.636 120.53,102.127 120.53,100.357C120.53,98.587 121.816,97.078 123.565,96.796L123.611,96.796ZM105.278,102.808C105.712,104.699 107.49,105.969 109.421,105.768C110.337,105.864 111.253,105.583 111.956,104.99C112.66,104.396 113.09,103.541 113.148,102.623C113.131,101.045 111.921,99.736 110.347,99.594L108.681,99.224C107.894,99.062 107.523,98.623 107.523,97.998C107.62,97.162 108.376,96.562 109.213,96.657C110.257,96.572 111.188,97.31 111.343,98.345L113.079,97.674C112.649,95.934 110.998,94.778 109.213,94.969C107.333,94.876 105.726,96.307 105.602,98.183C105.613,99.628 106.691,100.843 108.125,101.028L109.861,101.421C110.718,101.606 111.181,102.091 111.181,102.716C111.181,103.34 110.579,104.08 109.444,104.08C108.287,104.175 107.263,103.336 107.13,102.184L105.278,102.808ZM101.481,101.953C101.151,103.233 99.955,104.097 98.634,104.011C97.81,104.023 97.016,103.7 96.435,103.116C95.854,102.531 95.537,101.735 95.556,100.912L103.218,100.912C103.235,100.704 103.235,100.495 103.218,100.287C103.388,98.909 102.945,97.525 102.005,96.501C101.065,95.478 99.723,94.918 98.333,94.969C95.48,95.21 93.308,97.628 93.376,100.488C93.443,103.348 95.727,105.661 98.588,105.768C100.682,105.867 102.581,104.549 103.218,102.554L101.481,101.953ZM95.625,99.316C95.687,97.846 96.906,96.689 98.38,96.703C99.108,96.637 99.831,96.885 100.365,97.383C100.9,97.882 101.197,98.585 101.181,99.316L95.625,99.316ZM90.509,90.066L88.426,90.066L88.426,105.375L90.417,105.375L90.509,90.066ZM82.917,95.108C82.693,95.087 82.469,95.087 82.245,95.108C80.921,95.053 79.702,95.828 79.19,97.05L79.19,95.269L77.245,95.269L77.245,105.444L79.236,105.444L79.236,100.357C79.236,98.044 80.37,97.212 82.037,97.212L82.917,97.212L82.917,95.108ZM70.926,91.5C70.926,92.292 71.568,92.934 72.361,92.934C73.154,92.934 73.796,92.292 73.796,91.5C73.796,90.708 73.154,90.066 72.361,90.066C71.979,90.06 71.61,90.209 71.339,90.479C71.069,90.749 70.92,91.118 70.926,91.5ZM73.356,95.339L71.389,95.339L71.389,105.514L73.356,105.514L73.356,95.339ZM61.042,99.64C61.042,98.091 61.852,96.842 63.356,96.842C64.861,96.842 65.671,97.998 65.671,99.409L65.671,105.514L67.662,105.514L67.662,99.062C67.798,98.028 67.474,96.986 66.774,96.212C66.075,95.438 65.071,95.009 64.028,95.038C62.734,94.996 61.522,95.672 60.88,96.796L60.88,95.339L58.935,95.339L58.935,105.514L60.926,105.514L61.042,99.64ZM54.306,101.953C53.975,103.233 52.779,104.097 51.458,104.011C50.646,104.023 49.863,103.709 49.284,103.14C48.705,102.57 48.38,101.793 48.38,100.981L56.042,100.981C56.059,100.773 56.059,100.565 56.042,100.357C56.212,98.978 55.769,97.594 54.829,96.571C53.889,95.547 52.547,94.987 51.157,95.038C48.304,95.28 46.132,97.698 46.2,100.557C46.267,103.417 48.551,105.73 51.412,105.838C53.506,105.937 55.405,104.618 56.042,102.623L54.306,101.953ZM48.449,99.316C48.511,97.846 49.73,96.689 51.204,96.703C51.932,96.637 52.655,96.885 53.19,97.383C53.724,97.882 54.021,98.585 54.005,99.316L48.449,99.316ZM41.968,92.055L40.162,92.055L40.162,93.813C40.207,94.24 40.055,94.665 39.749,94.966C39.442,95.268 39.015,95.414 38.588,95.362L38.032,95.362L38.032,97.166L40,97.166L40,102.762C39.923,103.537 40.192,104.307 40.737,104.865C41.282,105.423 42.046,105.711 42.824,105.653C43.285,105.65 43.744,105.588 44.19,105.468L44.19,103.756L43.403,103.756C42.361,103.756 41.968,103.294 41.968,102.369L41.968,97.143L44.282,97.143L44.282,95.339L41.968,95.339L41.968,92.055ZM33.611,104.219C33.58,104.627 33.58,105.036 33.611,105.444L35.509,105.444C35.432,104.823 35.393,104.197 35.394,103.571L35.394,95.339L33.426,95.339L33.426,101.49C33.509,102.17 33.286,102.853 32.817,103.353C32.348,103.853 31.68,104.119 30.995,104.08C29.329,104.08 28.681,102.854 28.681,101.467L28.681,95.339L26.69,95.339L26.69,101.768C26.605,102.826 26.971,103.872 27.698,104.647C28.425,105.422 29.446,105.854 30.509,105.838C31.752,105.941 32.949,105.344 33.611,104.288L33.611,104.219ZM18.819,94.969C16.61,94.884 14.57,96.149 13.667,98.166C12.764,100.183 13.178,102.546 14.715,104.135C16.251,105.724 18.6,106.221 20.649,105.39C22.698,104.558 24.036,102.566 24.028,100.357C24.098,98.94 23.579,97.557 22.592,96.536C21.605,95.515 20.24,94.948 18.819,94.969ZM18.819,103.988C17.311,104.18 15.84,103.419 15.127,102.077C14.413,100.735 14.605,99.092 15.609,97.951C16.614,96.81 18.22,96.408 19.644,96.943C21.068,97.478 22.011,98.837 22.014,100.357C22.119,101.272 21.831,102.188 21.223,102.88C20.614,103.572 19.741,103.974 18.819,103.988ZM11.574,93.928C11.117,91.544 8.894,89.919 6.481,90.205C3.855,90.047 1.596,92.044 1.435,94.668C1.444,96.76 3.013,98.516 5.093,98.761L7.245,99.247C8.499,99.305 9.502,100.307 9.56,101.559C9.56,102.878 8.542,103.872 6.458,103.872C4.586,104.018 2.949,102.621 2.801,100.75L0.81,101.374C1.194,104.113 3.654,106.073 6.412,105.838C7.698,105.987 8.987,105.592 9.968,104.748C10.948,103.905 11.531,102.69 11.574,101.397C11.527,99.215 9.859,97.41 7.685,97.189L5.37,96.703C4.214,96.57 3.367,95.551 3.449,94.391C3.49,93.672 3.821,93 4.366,92.53C4.912,92.059 5.625,91.829 6.343,91.893C7.904,91.804 9.278,92.915 9.514,94.46L11.574,93.928Z" style="fill:rgb(45,45,90);fill-rule:nonzero;"/>
        </g>
    </g>
</svg>
